<svg xmlns="http://www.w3.org/2000/svg" viewBox="0 0 1280 800" width="1280" height="800">
  <defs>
    <linearGradient id="g" x1="0" y1="0" x2="1" y2="1">
      <stop offset="0" stop-color="#1F2025"/>
      <stop offset="1" stop-color="#13141A"/>
    </linearGradient>
    <radialGradient id="r" cx="0.5" cy="0.5" r="0.7">
      <stop offset="0" stop-color="#9B7BE0" stop-opacity="0.3"/>
      <stop offset="1" stop-color="#9B7BE0" stop-opacity="0"/>
    </radialGradient>
  </defs>
  <rect width="1280" height="800" fill="url(#g)"/>
  <rect width="1280" height="800" fill="url(#r)"/>
  <g fill="none" stroke="#9B7BE0" stroke-width="2" opacity="0.7">
    <rect x="780" y="200" width="160" height="80" rx="6"/>
    <rect x="980" y="200" width="160" height="80" rx="6"/>
    <rect x="880" y="360" width="160" height="80" rx="6"/>
    <line x1="940" y1="280" x2="960" y2="360"/>
    <line x1="1060" y1="280" x2="960" y2="360"/>
    <line x1="960" y1="440" x2="900" y2="540"/>
    <line x1="960" y1="440" x2="1020" y2="540"/>
    <rect x="840" y="540" width="120" height="60" rx="6"/>
    <rect x="980" y="540" width="120" height="60" rx="6"/>
  </g>
  <text x="80" y="120" font-family="Fira Code, monospace" font-size="20" fill="#9B7BE0" letter-spacing="2">03 / AUTOMATE PRO</text>
  <text x="80" y="640" font-family="Georgia, serif" font-size="96" fill="#E8EAF0" font-style="italic">Automate Pro</text>
  <text x="80" y="700" font-family="Inter, sans-serif" font-size="24" fill="#ABADB7">AI lead gatekeeper · n8n + Gemini</text>
  <text x="80" y="740" font-family="Fira Code, monospace" font-size="14" fill="#767882">2025 — 20+ hrs/wk recovered</text>
</svg>
