<svg xmlns="http://www.w3.org/2000/svg" viewBox="0 0 1280 800" width="1280" height="800">
  <defs>
    <linearGradient id="g" x1="0" y1="0" x2="1" y2="1">
      <stop offset="0" stop-color="#1F2025"/>
      <stop offset="1" stop-color="#13141A"/>
    </linearGradient>
    <radialGradient id="r" cx="0.6" cy="0.6" r="0.6">
      <stop offset="0" stop-color="#F59E66" stop-opacity="0.3"/>
      <stop offset="1" stop-color="#F59E66" stop-opacity="0"/>
    </radialGradient>
  </defs>
  <rect width="1280" height="800" fill="url(#g)"/>
  <rect width="1280" height="800" fill="url(#r)"/>
  <g fill="none" stroke="#F59E66" stroke-width="2" opacity="0.6">
    <line x1="900" y1="200" x2="900" y2="600"/>
    <line x1="900" y1="200" x2="780" y2="280"/>
    <line x1="900" y1="200" x2="1020" y2="280"/>
    <line x1="900" y1="320" x2="760" y2="400"/>
    <line x1="900" y1="320" x2="1040" y2="400"/>
    <line x1="900" y1="440" x2="780" y2="520"/>
    <line x1="900" y1="440" x2="1020" y2="520"/>
    <circle cx="780" cy="280" r="8" fill="#F59E66"/>
    <circle cx="1020" cy="280" r="8" fill="#F59E66"/>
    <circle cx="760" cy="400" r="8" fill="#F59E66"/>
    <circle cx="1040" cy="400" r="8" fill="#F59E66"/>
    <circle cx="780" cy="520" r="8" fill="#F59E66"/>
    <circle cx="1020" cy="520" r="8" fill="#F59E66"/>
  </g>
  <text x="80" y="120" font-family="Fira Code, monospace" font-size="20" fill="#F59E66" letter-spacing="2">04 / CONTENT ENGINE</text>
  <text x="80" y="640" font-family="Georgia, serif" font-size="96" fill="#E8EAF0" font-style="italic">Content Engine</text>
  <text x="80" y="700" font-family="Inter, sans-serif" font-size="24" fill="#ABADB7">One input, twelve channel-native outputs</text>
  <text x="80" y="740" font-family="Fira Code, monospace" font-size="14" fill="#767882">2024 — prompt-chained syndication</text>
</svg>
